<svg version="1.1" id="Layer_1" xmlns="http://www.w3.org/2000/svg" xmlns:xlink="http://www.w3.org/1999/xlink" x="0px" y="0px"
	 width="100%" viewBox="0 0 125 127" enable-background="new 0 0 125 127" xml:space="preserve">
<path fill="#FFF8EA" opacity="1.000000" stroke="none" 
	d="
M67.000000,128.000000 
	C44.666668,128.000000 22.833334,128.000000 1.000000,128.000000 
	C1.000000,85.666664 1.000000,43.333332 1.000000,1.000000 
	C42.666668,1.000000 84.333336,1.000000 126.000000,1.000000 
	C126.000000,43.333332 126.000000,85.666664 126.000000,128.000000 
	C106.500000,128.000000 87.000000,128.000000 67.000000,128.000000 
M82.545433,7.690655 
	C77.834534,12.382154 72.750252,16.761490 68.503525,21.841055 
	C62.679363,28.807394 62.635990,37.443218 67.556007,45.031429 
	C68.437889,46.391556 69.375595,47.715485 69.993233,48.623486 
	C68.299797,50.900162 66.846542,52.853935 64.700912,55.738552 
	C62.829884,53.332272 61.841087,51.750721 60.559124,50.460453 
	C49.287601,39.115864 37.985451,27.801441 26.644588,16.526148 
	C22.321594,12.228148 19.888721,12.357997 16.023767,17.133993 
	C11.044974,23.286375 8.511793,30.521748 10.792581,38.085167 
	C12.402873,43.425133 15.414447,48.777397 19.115992,52.959881 
	C26.457825,61.255646 34.708855,68.746758 42.703003,76.688538 
	C41.444515,78.086983 40.722027,78.974220 39.913841,79.774948 
	C30.921595,88.684288 21.943075,97.607811 12.896762,106.462029 
	C10.374323,108.930901 9.551486,111.634048 11.995236,114.340210 
	C14.565329,117.186272 17.442709,116.163025 19.896170,113.892609 
	C22.462097,111.518105 24.881662,108.985619 27.369785,106.526833 
	C34.801575,99.182632 42.235615,91.840721 48.463207,85.688828 
	C54.759743,88.379738 59.920971,92.330132 65.050331,92.289169 
	C70.228165,92.247826 75.374390,88.247894 81.467644,85.572495 
	C89.744812,93.860863 99.010780,103.150566 108.294357,112.422630 
	C109.586983,113.713646 110.783218,115.530922 112.353966,116.000084 
	C114.139374,116.533356 116.923698,116.524910 118.110985,115.457962 
	C119.263832,114.421982 119.508888,111.616920 119.099998,109.829544 
	C118.739082,108.251938 117.020523,106.912918 115.740784,105.628616 
	C102.571510,92.412231 89.365913,79.232048 76.182549,66.029694 
	C74.935646,64.780991 73.771065,63.450100 72.855278,62.465847 
	C74.667763,60.085403 76.139816,58.152065 77.494827,56.372448 
	C91.395912,65.868843 99.118820,65.128601 110.394653,53.856289 
	C112.868599,51.383114 115.363747,48.930031 117.791916,46.412510 
	C120.135460,43.982735 121.181602,41.182278 118.450798,38.516701 
	C115.769203,35.899162 112.982285,36.817871 110.544998,39.233276 
	C107.113770,42.633717 103.801559,46.163334 100.240959,49.421898 
	C95.507599,53.753727 90.178574,53.471046 85.776100,48.702663 
	C86.878136,47.526119 87.967400,46.303219 89.120018,45.143284 
	C93.581940,40.653042 98.080765,36.199402 102.532066,31.698711 
	C105.013412,29.189837 106.358513,26.299047 103.367691,23.441011 
	C100.654465,20.848242 97.871239,21.907034 95.460159,24.308313 
	C94.161865,25.601332 92.839775,26.871294 91.566803,28.188753 
	C87.209564,32.698265 82.869316,37.224201 78.503189,41.764038 
	C73.529465,36.312603 73.288261,31.467503 77.414490,26.935474 
	C80.663528,23.366913 84.459702,20.270245 87.485367,16.536522 
	C88.834602,14.871540 89.934914,11.704401 89.220779,10.052059 
	C88.572342,8.551744 85.309380,8.181427 82.545433,7.690655 
z"/>
<path fill="#DE6C66" opacity="1.000000" stroke="none" 
	d="
M82.872238,7.501799 
	C85.309380,8.181427 88.572342,8.551744 89.220779,10.052059 
	C89.934914,11.704401 88.834602,14.871540 87.485367,16.536522 
	C84.459702,20.270245 80.663528,23.366913 77.414490,26.935474 
	C73.288261,31.467503 73.529465,36.312603 78.503189,41.764038 
	C82.869316,37.224201 87.209564,32.698265 91.566803,28.188753 
	C92.839775,26.871294 94.161865,25.601332 95.460159,24.308313 
	C97.871239,21.907034 100.654465,20.848242 103.367691,23.441011 
	C106.358513,26.299047 105.013412,29.189837 102.532066,31.698711 
	C98.080765,36.199402 93.581940,40.653042 89.120018,45.143284 
	C87.967400,46.303219 86.878136,47.526119 85.776100,48.702663 
	C90.178574,53.471046 95.507599,53.753727 100.240959,49.421898 
	C103.801559,46.163334 107.113770,42.633717 110.544998,39.233276 
	C112.982285,36.817871 115.769203,35.899162 118.450798,38.516701 
	C121.181602,41.182278 120.135460,43.982735 117.791916,46.412510 
	C115.363747,48.930031 112.868599,51.383114 110.394653,53.856289 
	C99.118820,65.128601 91.395912,65.868843 77.494827,56.372448 
	C76.139816,58.152065 74.667763,60.085403 72.855278,62.465847 
	C73.771065,63.450100 74.935646,64.780991 76.182549,66.029694 
	C89.365913,79.232048 102.571510,92.412231 115.740784,105.628616 
	C117.020523,106.912918 118.739082,108.251938 119.099998,109.829544 
	C119.508888,111.616920 119.263832,114.421982 118.110985,115.457962 
	C116.923698,116.524910 114.139374,116.533356 112.353966,116.000084 
	C110.783218,115.530922 109.586983,113.713646 108.294357,112.422630 
	C99.010780,103.150566 89.744812,93.860863 81.467644,85.572495 
	C75.374390,88.247894 70.228165,92.247826 65.050331,92.289169 
	C59.920971,92.330132 54.759743,88.379738 48.463207,85.688828 
	C42.235615,91.840721 34.801575,99.182632 27.369785,106.526833 
	C24.881662,108.985619 22.462097,111.518105 19.896170,113.892609 
	C17.442709,116.163025 14.565329,117.186272 11.995236,114.340210 
	C9.551486,111.634048 10.374323,108.930901 12.896762,106.462029 
	C21.943075,97.607811 30.921595,88.684288 39.913841,79.774948 
	C40.722027,78.974220 41.444515,78.086983 42.703003,76.688538 
	C34.708855,68.746758 26.457825,61.255646 19.115992,52.959881 
	C15.414447,48.777397 12.402873,43.425133 10.792581,38.085167 
	C8.511793,30.521748 11.044974,23.286375 16.023767,17.133993 
	C19.888721,12.357997 22.321594,12.228148 26.644588,16.526148 
	C37.985451,27.801441 49.287601,39.115864 60.559124,50.460453 
	C61.841087,51.750721 62.829884,53.332272 64.700912,55.738552 
	C66.846542,52.853935 68.299797,50.900162 69.993233,48.623486 
	C69.375595,47.715485 68.437889,46.391556 67.556007,45.031429 
	C62.635990,37.443218 62.679363,28.807394 68.503525,21.841055 
	C72.750252,16.761490 77.834534,12.382154 82.872238,7.501799 
M20.894230,29.726421 
	C19.050230,36.261002 21.584223,41.418201 26.064434,45.912777 
	C36.858429,56.741352 47.678764,67.543678 58.493568,78.351494 
	C64.386833,84.240952 67.346016,83.900230 72.521042,76.112968 
	C68.560516,72.368111 64.391075,68.593079 60.409435,64.629395 
	C48.632023,52.905087 36.956223,41.078548 25.145472,29.388187 
	C24.180050,28.432608 22.779055,24.887283 20.894230,29.726421 
z"/>
<path fill="#FFF7E9" opacity="1.000000" stroke="none" 
	d="
M20.959488,29.351261 
	C22.779055,24.887283 24.180050,28.432608 25.145472,29.388187 
	C36.956223,41.078548 48.632023,52.905087 60.409435,64.629395 
	C64.391075,68.593079 68.560516,72.368111 72.521042,76.112968 
	C67.346016,83.900230 64.386833,84.240952 58.493568,78.351494 
	C47.678764,67.543678 36.858429,56.741352 26.064434,45.912777 
	C21.584223,41.418201 19.050230,36.261002 20.959488,29.351261 
z"/>
</svg>